<mxfile host="app.diagrams.net" modified="2022-12-26T06:25:27.282Z" agent="5.0 (Macintosh; Intel Mac OS X 10_14_6) AppleWebKit/537.36 (KHTML, like Gecko) Chrome/108.0.0.0 Safari/537.36" version="20.7.4" etag="a-AcBX92x6Fty7viJH9v" type="github">
  <diagram id="Q8nyhq-LnvJOLCCwVHSN" name="第 1 页">
    <mxGraphModel dx="1004" dy="1733" grid="1" gridSize="10" guides="1" tooltips="1" connect="1" arrows="1" fold="1" page="1" pageScale="1" pageWidth="827" pageHeight="1169" math="0" shadow="0">
      <root>
        <mxCell id="0" />
        <mxCell id="1" parent="0" />
        <mxCell id="XgW0dIju-yT4iS6HYBJ8-1" value="FIN_WAIT1" style="rounded=1;whiteSpace=wrap;html=1;strokeWidth=2;fillWeight=4;hachureGap=8;hachureAngle=45;fillColor=#fff2cc;strokeColor=#d6b656;fontSize=15;fontStyle=1" vertex="1" parent="1">
          <mxGeometry x="120" width="120" height="240" as="geometry" />
        </mxCell>
        <mxCell id="XgW0dIju-yT4iS6HYBJ8-2" value="CLOSE_WAIT" style="rounded=1;whiteSpace=wrap;html=1;strokeWidth=2;fillWeight=4;hachureGap=8;hachureAngle=45;fillColor=#b0e3e6;strokeColor=#0e8088;fontSize=15;fontStyle=1" vertex="1" parent="1">
          <mxGeometry x="560" y="120" width="120" height="120" as="geometry" />
        </mxCell>
        <mxCell id="XgW0dIju-yT4iS6HYBJ8-3" value="establish" style="rounded=1;whiteSpace=wrap;html=1;strokeWidth=2;fillWeight=4;hachureGap=8;hachureAngle=45;fillColor=#d5e8d4;strokeColor=#82b366;fontSize=15;fontStyle=1" vertex="1" parent="1">
          <mxGeometry x="120" y="-80" width="120" height="80" as="geometry" />
        </mxCell>
        <mxCell id="XgW0dIju-yT4iS6HYBJ8-4" value="LAST_ACK" style="rounded=1;whiteSpace=wrap;html=1;strokeWidth=2;fillWeight=4;hachureGap=8;hachureAngle=45;fillColor=#f8cecc;strokeColor=#b85450;fontSize=15;fontStyle=1" vertex="1" parent="1">
          <mxGeometry x="560" y="240" width="120" height="240" as="geometry" />
        </mxCell>
        <mxCell id="XgW0dIju-yT4iS6HYBJ8-5" value="establish" style="rounded=1;whiteSpace=wrap;html=1;strokeWidth=2;fillWeight=4;hachureGap=8;hachureAngle=45;fillColor=#d5e8d4;strokeColor=#82b366;fontSize=15;fontStyle=1" vertex="1" parent="1">
          <mxGeometry x="560" y="-80" width="120" height="200" as="geometry" />
        </mxCell>
        <mxCell id="XgW0dIju-yT4iS6HYBJ8-6" value="close" style="rounded=1;whiteSpace=wrap;html=1;strokeWidth=2;fillWeight=4;hachureGap=8;hachureAngle=45;fillColor=#f5f5f5;strokeColor=#666666;fontSize=15;fontStyle=1;fontColor=#333333;" vertex="1" parent="1">
          <mxGeometry x="560" y="480" width="120" height="160" as="geometry" />
        </mxCell>
        <mxCell id="XgW0dIju-yT4iS6HYBJ8-7" value="close" style="rounded=1;whiteSpace=wrap;html=1;strokeWidth=2;fillWeight=4;hachureGap=8;hachureAngle=45;fillColor=#f5f5f5;strokeColor=#666666;fontSize=15;fontStyle=1;fontColor=#333333;" vertex="1" parent="1">
          <mxGeometry x="120" y="560" width="120" height="80" as="geometry" />
        </mxCell>
        <mxCell id="XgW0dIju-yT4iS6HYBJ8-8" value="" style="endArrow=classic;html=1;rounded=0;fontSize=15;strokeWidth=2;sketch=1;curveFitting=1;jiggle=2;" edge="1" parent="1">
          <mxGeometry width="50" height="50" relative="1" as="geometry">
            <mxPoint x="250" y="5" as="sourcePoint" />
            <mxPoint x="530" y="115" as="targetPoint" />
          </mxGeometry>
        </mxCell>
        <mxCell id="XgW0dIju-yT4iS6HYBJ8-9" value="" style="endArrow=classic;html=1;rounded=0;fontSize=15;strokeWidth=2;sketch=1;curveFitting=1;jiggle=2;" edge="1" parent="1">
          <mxGeometry width="50" height="50" relative="1" as="geometry">
            <mxPoint x="530" y="130" as="sourcePoint" />
            <mxPoint x="250" y="240" as="targetPoint" />
          </mxGeometry>
        </mxCell>
        <mxCell id="XgW0dIju-yT4iS6HYBJ8-10" value="" style="endArrow=classic;html=1;rounded=0;fontSize=15;strokeWidth=2;sketch=1;curveFitting=1;jiggle=2;" edge="1" parent="1">
          <mxGeometry width="50" height="50" relative="1" as="geometry">
            <mxPoint x="250" y="370" as="sourcePoint" />
            <mxPoint x="550" y="480" as="targetPoint" />
          </mxGeometry>
        </mxCell>
        <mxCell id="XgW0dIju-yT4iS6HYBJ8-11" value="fin" style="text;html=1;fontSize=15;fontStyle=1;verticalAlign=middle;align=center;sketch=0;fontColor=#97D077;" vertex="1" parent="1">
          <mxGeometry x="330" y="10" width="130" height="40" as="geometry" />
        </mxCell>
        <mxCell id="XgW0dIju-yT4iS6HYBJ8-12" value="fin" style="text;html=1;fontSize=15;fontStyle=1;verticalAlign=middle;align=center;sketch=0;fontColor=#FF6666;whiteSpace=wrap;" vertex="1" parent="1">
          <mxGeometry x="274" y="270" width="140" height="40" as="geometry" />
        </mxCell>
        <mxCell id="XgW0dIju-yT4iS6HYBJ8-13" value="ack" style="text;strokeColor=none;fillColor=none;html=1;fontSize=15;fontStyle=1;verticalAlign=middle;align=center;sketch=0;fontColor=#FF6666;" vertex="1" parent="1">
          <mxGeometry x="400" y="400" width="100" height="40" as="geometry" />
        </mxCell>
        <mxCell id="XgW0dIju-yT4iS6HYBJ8-14" value="ack" style="text;html=1;fontSize=15;fontStyle=1;verticalAlign=middle;align=center;sketch=0;fontColor=#97D077;" vertex="1" parent="1">
          <mxGeometry x="270" y="150" width="144" height="40" as="geometry" />
        </mxCell>
        <mxCell id="XgW0dIju-yT4iS6HYBJ8-16" value="FIN_WAIT2" style="rounded=1;whiteSpace=wrap;html=1;strokeWidth=2;fillWeight=4;hachureGap=8;hachureAngle=45;fillColor=#fff2cc;strokeColor=#d6b656;fontSize=15;fontStyle=1" vertex="1" parent="1">
          <mxGeometry x="120" y="240" width="120" height="120" as="geometry" />
        </mxCell>
        <mxCell id="XgW0dIju-yT4iS6HYBJ8-17" value="TIME_WAIT" style="rounded=1;whiteSpace=wrap;html=1;strokeWidth=2;fillWeight=4;hachureGap=8;hachureAngle=45;fillColor=#dae8fc;strokeColor=#6c8ebf;fontSize=15;fontStyle=1" vertex="1" parent="1">
          <mxGeometry x="120" y="360" width="120" height="200" as="geometry" />
        </mxCell>
        <mxCell id="XgW0dIju-yT4iS6HYBJ8-19" value="" style="endArrow=classic;html=1;rounded=0;fontSize=15;strokeWidth=2;sketch=1;curveFitting=1;jiggle=2;" edge="1" parent="1">
          <mxGeometry width="50" height="50" relative="1" as="geometry">
            <mxPoint x="540" y="240" as="sourcePoint" />
            <mxPoint x="260" y="350" as="targetPoint" />
          </mxGeometry>
        </mxCell>
      </root>
    </mxGraphModel>
  </diagram>
</mxfile>
